<?xml version="1.0" encoding="utf-8"?>
<!-- Generator: Adobe Illustrator 27.2.0, SVG Export Plug-In . SVG Version: 6.00 Build 0)  -->
<svg version="1.1" xmlns="http://www.w3.org/2000/svg" xmlns:xlink="http://www.w3.org/1999/xlink" x="0px" y="0px"
	 viewBox="0 0 48 48" style="enable-background:new 0 0 48 48;" xml:space="preserve">
<style type="text/css">
	.st0{fill:none;stroke:#FFFFFF;stroke-linecap:round;stroke-linejoin:round;stroke-miterlimit:10;}
	.st1{fill:none;stroke:#FFFFFF;stroke-linecap:round;stroke-linejoin:round;}
</style>
<g id="backgorund">
</g>
<g id="Layer_2">
	<g>
		<g>
			<path class="st0" d="M25.52,25.2c0-1.66,1.34-3,3-3h0c1.66,0,3,1.34,3,3V30"/>
			<line class="st0" x1="25.52" y1="22.2" x2="25.52" y2="30"/>
		</g>
		<g>
			<path class="st0" d="M31.52,25.2c0-1.66,1.34-3,3-3h0c1.66,0,3,1.34,3,3V30"/>
		</g>
	</g>
	<g>
		<line class="st0" x1="10.48" y1="18" x2="10.48" y2="30"/>
		<line class="st0" x1="10.48" y1="27.45" x2="15.91" y2="22.05"/>
		<line class="st0" x1="12.21" y1="25.73" x2="16.48" y2="29.98"/>
	</g>
	<g>
		<path class="st0" d="M19.81,19.54v8.92c0,0.83,0.67,1.5,1.5,1.5h0.45"/>
		<line class="st0" x1="16.1" y1="22.01" x2="25.52" y2="22.01"/>
	</g>
	<path class="st1" d="M40.5,5.5h-33c-1.1,0-2,0.9-2,2v33c0,1.1,0.9,2,2,2h33c1.1,0,2-0.9,2-2v-33C42.5,6.4,41.6,5.5,40.5,5.5z"/>
</g>
</svg>
